<svg width="768" height="768" viewBox="0 0 768 768" fill="none" xmlns="http://www.w3.org/2000/svg">
<path d="M151.239 376.95C151.439 377.85 152.239 378.25 152.839 378.85C178.539 404.55 204.239 430.25 229.939 455.95C231.039 457.05 231.939 458.45 233.739 458.55C237.739 462.15 241.339 466.05 245.139 469.75C247.339 471.95 247.339 471.95 249.639 469.75C262.739 456.75 275.939 443.75 289.039 430.75C310.139 409.75 331.239 388.85 352.339 367.85C358.439 361.75 364.639 355.65 370.739 349.55C374.539 345.75 378.439 341.95 382.339 338.15C383.839 336.65 384.039 336.65 385.539 338.15C385.639 338.25 385.739 338.35 385.939 338.55C404.039 356.65 422.139 374.75 440.239 392.75C440.639 393.15 441.039 393.65 441.439 394.05C442.339 394.85 443.139 395.65 443.939 396.45C462.939 415.45 481.839 434.45 500.839 453.35C506.739 459.25 512.639 465.05 518.539 470.95C519.639 472.05 520.439 472.55 521.839 471.15C534.839 457.85 548.439 445.05 561.339 431.65C572.939 420.15 584.539 408.65 596.039 397.15C611.439 381.85 626.839 366.45 642.239 351.05C646.439 346.85 650.639 342.75 654.839 338.55C656.839 336.55 656.839 336.55 658.939 338.65C663.739 343.45 668.639 348.25 673.439 353.15C686.639 366.35 699.839 379.55 713.039 392.75C715.539 395.25 715.239 394.75 713.039 396.95C701.339 408.65 689.639 420.45 677.839 432.05C663.339 446.25 649.239 460.65 634.839 474.85C620.639 488.95 606.539 503.05 592.239 517.05C570.039 538.85 548.239 560.95 526.139 582.85C524.739 584.15 523.439 585.55 522.039 586.85C520.339 588.55 520.339 588.55 518.739 586.95C514.339 582.55 509.939 578.15 505.439 573.75C496.539 564.85 487.639 555.95 478.639 547.15C458.739 527.55 439.039 507.75 419.339 488.05C412.639 481.35 406.039 474.55 399.139 467.95C394.539 463.55 390.139 459.05 385.539 454.65C383.839 453.05 383.839 453.05 382.239 454.65C367.839 468.65 353.839 482.95 339.539 497.15C332.339 504.25 325.239 511.35 318.039 518.45C317.639 518.75 317.239 519.05 316.939 519.45C315.939 519.95 315.239 520.75 314.439 521.55C292.939 543.05 271.339 564.65 249.839 586.15C247.539 588.45 247.539 588.45 245.239 586.15C232.839 573.75 220.539 561.25 208.039 549.05C200.939 542.05 193.839 535.05 186.739 528.05C186.139 527.45 185.539 526.85 184.839 526.55C181.839 523.55 178.839 520.55 175.739 517.55C157.739 499.65 139.739 481.65 121.839 463.65C114.739 456.55 107.639 449.35 100.439 442.35C84.8385 427.05 69.7385 411.75 54.5385 396.55C54.1385 396.15 53.7385 395.75 53.3385 395.35C52.8385 394.85 52.9385 394.25 53.3385 393.75C53.7385 393.25 54.2385 392.75 54.7385 392.35C63.5385 383.55 72.2385 374.75 81.1385 366.05C90.5385 356.85 99.7385 347.45 109.139 338.25C110.839 336.55 111.039 336.55 112.539 338.05C125.439 350.85 138.239 363.75 151.139 376.55C151.139 376.65 151.239 376.85 151.239 376.95Z" fill="#0888F0"/>
<path d="M538.238 229.05C540.438 230.55 542.538 232.05 544.738 233.55C546.838 235.15 548.938 236.75 551.238 238.05C555.438 241.25 559.638 244.45 563.838 247.75C567.038 250.25 570.138 252.95 573.238 255.45C574.538 256.25 575.438 257.75 576.838 258.45C581.938 262.95 586.938 267.35 591.738 272.15C593.338 273.75 595.038 275.15 596.638 276.75C598.338 278.35 598.238 278.45 596.638 280.05C586.138 290.45 575.638 300.95 565.138 311.35C557.338 319.05 549.538 326.85 541.738 334.55C541.438 334.85 541.138 335.15 540.838 335.45C540.138 336.05 539.638 336.05 538.938 335.45C537.038 333.65 535.038 331.85 533.138 330.05C527.038 324.15 520.638 318.65 514.038 313.25C505.838 306.55 497.138 300.35 488.338 294.45C487.438 293.85 486.538 293.25 485.438 292.95C485.338 292.55 485.138 292.25 484.738 292.05C478.838 288.55 472.938 285.05 466.738 282.05C462.838 280.15 458.938 278.15 454.938 276.45C451.938 275.25 448.938 273.85 445.738 272.95C443.538 272.25 441.438 271.35 439.238 270.55C436.338 269.55 433.538 268.55 430.538 268.05C429.338 267.85 428.238 267.25 427.038 266.95C424.938 266.35 422.638 266.25 420.538 265.45C418.938 264.75 417.138 264.75 415.438 264.45C413.038 263.95 410.538 263.45 408.138 263.15C406.438 262.95 404.638 262.95 402.938 262.45C400.438 261.75 397.938 262.25 395.438 261.95C390.338 261.25 385.138 261.25 379.938 261.45C374.138 261.65 368.338 262.05 362.538 262.75C357.838 263.35 353.238 264.15 348.538 265.05C345.038 265.75 341.538 266.45 338.238 267.65C335.438 268.65 332.538 269.15 329.638 270.05C327.938 270.55 326.238 271.35 324.538 271.95C316.538 274.85 308.738 278.15 301.138 281.95C297.138 283.95 293.238 286.15 289.338 288.25C288.838 288.55 288.538 289.05 288.138 289.45C285.638 290.35 283.538 292.05 281.238 293.35C277.338 295.65 273.538 298.25 269.838 300.95C265.338 304.15 260.938 307.55 256.538 310.95C249.738 316.15 243.438 321.95 237.038 327.65C234.538 329.95 232.138 332.45 229.738 334.85C228.038 336.45 228.038 336.45 226.338 334.75C216.838 325.25 207.438 315.65 197.838 306.35C188.938 297.75 180.338 288.95 171.538 280.45C171.238 280.15 170.938 279.85 170.638 279.55C169.638 278.75 169.838 278.05 170.638 277.25C172.438 275.45 174.238 273.55 176.138 271.85C178.838 269.35 181.538 266.95 184.238 264.45C186.738 262.25 189.238 260.05 191.738 257.85C198.338 251.95 205.238 246.55 212.238 241.15C219.938 235.55 227.938 230.15 236.038 225.05C243.438 220.35 251.038 216.05 258.838 211.95C263.638 209.45 268.538 207.05 273.438 204.75C279.538 201.95 285.638 199.35 291.938 197.05C296.138 195.55 300.238 193.85 304.538 192.55C308.638 191.35 312.738 189.95 316.838 188.95C319.938 188.25 323.138 187.35 326.238 186.55C328.438 185.95 330.738 185.35 333.038 185.15C335.138 184.95 337.138 184.35 339.138 183.95C342.338 183.35 345.538 182.65 348.738 182.35C352.638 181.95 356.438 180.85 360.338 181.05C361.938 181.15 363.638 180.75 365.338 180.55C373.938 179.65 382.638 180.15 391.338 180.05C393.038 180.05 394.638 180.05 396.338 180.05C401.538 180.65 406.738 180.85 411.838 181.55C417.638 182.25 423.438 183.15 429.238 184.15C436.038 185.35 442.738 186.75 449.338 188.55C458.038 190.85 466.738 193.65 475.238 196.85C487.338 201.25 498.938 206.65 510.338 212.65C518.138 216.75 525.938 221.15 533.238 226.15C534.738 227.15 536.538 228.05 538.238 229.05Z" fill="#0888F0"/>
</svg>
