<svg width="400" height="400" viewBox="0 0 400 400" fill="none" xmlns="http://www.w3.org/2000/svg">
<g clip-path="url(#clip0_4114_444)">
<rect width="400" height="400" fill="#372DFF"/>
<mask id="mask0_4114_444" style="mask-type:luminance" maskUnits="userSpaceOnUse" x="0" y="0" width="400" height="400">
<path d="M400 0H0V400H400V0Z" fill="white"/>
</mask>
<g mask="url(#mask0_4114_444)">
<path fill-rule="evenodd" clip-rule="evenodd" d="M228.778 194.668C189.562 173.476 141.846 145.995 105.934 123.596C95.3385 115.962 100.716 99.7607 113.522 99.7607H291.214C301.126 99.7607 307.757 110.812 302.79 119.175C290.85 139.797 273.418 165.979 258.857 186.738C251.041 197.881 238.303 199.795 228.778 194.668ZM171.584 201.55C209.501 221.762 262.64 252.501 300.398 275.744C312.088 282.944 307.416 300.217 293.79 300.217C271.492 300.217 235.258 300.223 199.213 300.228C163.54 300.234 128.051 300.24 106.436 300.24C95.5444 300.24 89.9616 288.937 94.5874 281.053C110.219 254.415 127.788 227.527 142.394 207.452C148.888 198.496 162.105 196.491 171.584 201.55Z" fill="white"/>
</g>
</g>
<defs>
<clipPath id="clip0_4114_444">
<rect width="400" height="400" fill="white"/>
</clipPath>
</defs>
</svg>
