<svg width="200" height="200" viewBox="0 0 200 200" fill="none" xmlns="http://www.w3.org/2000/svg">
<rect width="200" height="200" fill="white"/>
<path d="M47.3 36.2911C59.7 25.9911 74 26.1911 88.9 28.1911C101.6 29.8911 114.3 30.7911 127 31.9911C130.3 32.4911 133.5 32.8911 136.8 33.3911C155.8 36.0911 168.1 47.3911 172.3 66.0911C172.4 66.6911 172.7 67.2911 173 67.9911C173 71.2911 173.1 74.5911 173.1 77.9911C172 88.2911 171 98.6911 169.9 108.991C168.9 118.291 167.9 127.691 166.9 136.991C165.2 146.391 161.5 154.791 154.9 161.791C147.7 168.091 139.6 172.391 129.9 172.891C125 173.191 120 172.491 115 172.291C113 172.091 111.1 171.991 109.1 171.791C104.7 171.191 100.2 170.691 95.8 170.091C80.5 167.791 65.3 165.491 50 163.291C34.1 154.891 27 141.491 27 123.891C27.1 122.591 27.2 121.291 27.3 119.891C28.4 109.591 29.6 99.1911 30.7 88.8911C31.5 80.1911 32.4 71.4911 33.2 62.8911C33.4 61.5911 33.7 60.1911 33.9 58.8911C36.2 50.0911 40.7 42.5911 47.3 36.2911ZM99.9 46.8911C92.2 46.8911 84.6 46.7911 76.9 46.8911C59.7 47.0911 46.3 60.5911 46.1 77.7911C46 92.5911 46 107.391 46.1 122.191C46.3 139.091 59.7 152.691 76.6 152.791C91.9 152.991 107.2 152.991 122.5 152.791C139.4 152.591 152.8 139.091 153 122.191C153.1 107.391 153.1 92.5911 153 77.7911C152.9 60.5911 139.4 47.0911 122.2 46.8911C114.8 46.7911 107.3 46.8911 99.9 46.8911Z" fill="#F4C042"/>
<path d="M99.8996 46.8916C107.4 46.8916 114.9 46.7916 122.4 46.8916C139.6 47.0916 153 60.5916 153.2 77.7916C153.3 92.5916 153.3 107.392 153.2 122.192C153 139.092 139.6 152.592 122.7 152.792C107.4 152.992 92.0996 152.992 76.7996 152.792C59.8996 152.592 46.4996 139.092 46.2996 122.192C46.1996 107.392 46.1996 92.5916 46.2996 77.7916C46.1996 60.5916 59.6996 47.0916 76.8996 46.8916C84.4996 46.7916 92.1996 46.8916 99.8996 46.8916ZM99.4996 51.8916C91.9996 51.8916 84.4996 51.7916 76.9996 51.8916C62.3996 52.0916 51.1996 63.2916 51.0996 77.9916C50.9996 92.5916 50.9996 107.292 51.0996 121.892C51.1996 136.492 62.4996 147.692 77.1996 147.792C92.1996 147.892 107.2 147.892 122.1 147.792C136.7 147.692 147.9 136.392 148 121.692C148.1 107.092 148.1 92.3916 148 77.7916C147.9 63.1916 136.6 51.9916 121.9 51.7916C114.5 51.7916 107 51.8916 99.4996 51.8916Z" fill="#0D1721"/>
<path d="M99.5 51.8916C107 51.8916 114.5 51.7916 122 51.8916C136.7 52.0916 147.9 63.1916 148.1 77.8916C148.2 92.4916 148.2 107.192 148.1 121.792C148 136.492 136.8 147.692 122.2 147.892C107.2 147.992 92.2 147.992 77.3 147.892C62.6 147.792 51.4 136.592 51.2 121.992C51.1 107.392 51.1 92.6916 51.2 78.0916C51.2 63.2916 62.4 52.0916 77.1 51.8916C84.6 51.7916 92 51.8916 99.5 51.8916ZM116.2 130.092C117.5 129.392 118.8 128.592 120.1 127.892C123.3 126.092 126.9 124.892 129.5 122.492C131.8 120.292 134.3 116.892 134.5 113.892C135.1 104.592 135.2 95.1916 134.5 85.9916C134.2 82.7916 131.6 78.6916 128.8 76.7916C121.9 71.9916 114.2 68.2916 106.9 63.9916C102.1 61.0916 97.6 61.3916 92.8 64.1916C86.1 68.1916 79.3 71.9916 72.5 75.7916C68.1 78.2916 65.4 81.7916 65.4 86.9916C65.4 95.7916 64.9 104.692 65.7 113.492C66 116.792 68.6 120.392 71.2 122.892C73.6 125.292 77.2 126.392 80.2 127.992C81.5 128.692 82.7 129.392 84 130.092C93.4 137.692 103 141.092 113.4 131.992C114.2 131.192 115.3 130.692 116.2 130.092Z" fill="#FBFCFC"/>
<path d="M80.1994 127.991C77.0994 126.291 73.5994 125.191 71.1994 122.891C68.6994 120.391 65.9994 116.791 65.6994 113.491C64.8994 104.691 65.3994 95.8913 65.3994 86.9913C65.3994 81.7913 68.0994 78.2913 72.4994 75.7913C79.2994 71.9913 86.0994 68.1913 92.7994 64.1913C97.4994 61.3913 101.999 61.0913 106.899 63.9913C114.199 68.2913 121.899 71.9913 128.799 76.7913C131.599 78.6913 134.199 82.6913 134.499 85.9913C135.199 95.2913 135.199 104.591 134.499 113.891C134.299 116.891 131.899 120.291 129.499 122.491C126.899 124.891 123.299 126.091 120.099 127.891C120.299 121.091 114.999 123.491 111.599 122.791C114.999 120.691 118.399 118.691 121.799 116.591C125.399 114.391 127.099 102.391 124.499 99.1913C122.799 97.0913 120.599 94.6913 120.499 92.3913C120.399 89.8913 122.599 87.3913 123.899 84.5913C117.099 80.6913 109.999 76.5913 102.899 72.6913C101.599 71.9913 99.1994 71.6913 97.9994 72.3913C90.5994 76.3913 83.2994 80.6913 75.8994 84.8913C81.6994 90.7913 81.6994 93.5913 76.4994 98.8913C75.6994 99.6913 75.1994 101.091 75.0994 102.291C74.8994 105.091 74.5994 107.991 75.1994 110.791C75.5994 112.691 76.8994 114.791 78.4994 115.991C81.7994 118.491 85.3994 120.491 88.8994 122.691C85.1994 123.491 79.7994 121.091 80.1994 127.991Z" fill="#0D1721"/>
<path d="M111.5 122.691C114.9 123.391 120.3 120.991 120 127.791C118.7 128.491 117.4 129.291 116.1 129.991C105.4 129.991 94.6001 129.991 83.9001 129.991C82.6001 129.291 81.4001 128.591 80.1001 127.891C79.7001 120.991 85.1001 123.391 88.6001 122.591C96.3001 122.691 103.9 122.691 111.5 122.691Z" fill="#0152FD"/>
<path d="M84 130.091C94.7 130.091 105.5 130.091 116.2 130.091C115.3 130.691 114.2 131.191 113.4 131.991C103 140.991 93.3 137.691 84 130.091Z" fill="#0D1721"/>
<path d="M111.5 122.691C103.9 122.691 96.1997 122.691 88.5997 122.691C85.0997 120.491 81.3997 118.491 78.1997 115.991C76.6997 114.791 75.2997 112.691 74.8997 110.791C74.3997 108.091 74.5997 105.191 74.7997 102.291C74.8997 101.091 75.3997 99.6911 76.1997 98.8911C81.4997 93.5911 81.4997 90.7911 75.5997 84.8911C82.9997 80.5911 90.2997 76.2911 97.6997 72.3911C98.9997 71.6911 101.3 71.9911 102.6 72.6911C109.8 76.4911 116.8 80.6911 123.6 84.5911C122.3 87.3911 120.1 89.8911 120.2 92.3911C120.3 94.6911 122.5 97.1911 124.2 99.1911C126.8 102.491 125.1 114.491 121.5 116.591C118.3 118.591 114.9 120.691 111.5 122.691Z" fill="#F4C042"/>
</svg>
